<svg width="17" height="17" viewBox="0 0 17 17" fill="none" xmlns="http://www.w3.org/2000/svg">
<circle cx="8.5" cy="8.5" r="8.5" fill="#F77F00"/>
<path d="M7.09145 3.76884C7.14199 3.74254 7.20028 3.7352 7.25576 3.74816C7.31125 3.76112 7.36026 3.79352 7.39391 3.83949C7.89508 4.53495 8.48015 5.64547 8.05625 7.68988C7.53963 10.1803 7.78469 11.8847 8.6082 13.1012C8.63229 13.1363 8.64636 13.1773 8.64889 13.2197C8.65142 13.2622 8.64231 13.3046 8.62256 13.3423C8.6028 13.38 8.57314 13.4116 8.53677 13.4337C8.50039 13.4558 8.45868 13.4675 8.41612 13.4677C6.32976 13.4677 4.63638 11.2268 4.63638 8.46261C4.63638 6.31001 5.6608 4.47755 7.09145 3.76884Z" fill="#FDFDFD"/>
<path d="M8.81793 3.83951C8.80585 3.79928 8.80461 3.75658 8.81433 3.71572C8.82405 3.67486 8.84439 3.63729 8.8733 3.60682C8.9022 3.57634 8.93864 3.55405 8.97893 3.54218C9.01922 3.53032 9.06193 3.5293 9.10274 3.53925C10.869 3.96535 12.1936 6.00756 12.1936 8.46262C12.1936 10.3039 11.443 11.9112 10.3259 12.7789C10.2805 12.8151 10.2235 12.8337 10.1655 12.8313C10.1075 12.8289 10.0523 12.8055 10.0101 12.7656C8.94819 11.7809 8.52651 10.2995 8.90625 7.82015C9.15793 6.21288 9.12482 4.88158 8.81793 3.83951Z" fill="#FDFDFD"/>
</svg>
