<svg width="17" height="17" viewBox="0 0 17 17" fill="none" xmlns="http://www.w3.org/2000/svg">
<circle cx="8.5" cy="8.5" r="8.5" fill="#F77F00"/>
<path d="M9.80134 5.01228L9.68834 5.28849C9.61301 5.46426 9.7009 5.66514 9.87667 5.74047C9.92689 5.75302 9.96455 5.76558 10.0148 5.76558C10.1529 5.76558 10.2784 5.69025 10.3412 5.55214L10.4542 5.27593C10.6425 4.84906 10.5672 4.34686 10.2784 3.98276C10.1278 3.79444 10.1152 3.53078 10.2408 3.31735L10.3789 3.0788C10.4793 2.91559 10.4291 2.70215 10.2659 2.60171C10.1027 2.50127 9.88922 2.55149 9.78878 2.7147L9.65068 2.95325C9.37447 3.40523 9.39958 3.99532 9.73856 4.42219C9.85156 4.5854 9.87667 4.8114 9.80134 5.01228Z" fill="#FDFDFD"/>
<path d="M8.11898 5.01227L8.00598 5.28849C7.93065 5.46426 8.01854 5.66514 8.19431 5.74047C8.24453 5.75302 8.28219 5.76558 8.33241 5.76558C8.47052 5.76558 8.59607 5.69025 8.65884 5.55214L8.77184 5.27593C8.96017 4.84906 8.88483 4.34686 8.59607 3.98276C8.44541 3.79444 8.43285 3.53078 8.5584 3.31735L8.68395 3.09136C8.78439 2.92814 8.73417 2.7147 8.57096 2.61426C8.40774 2.51382 8.19431 2.56404 8.09387 2.72726L7.95576 2.9658C7.67955 3.41779 7.70466 4.00787 8.04365 4.43474C8.1692 4.5854 8.20686 4.81139 8.11898 5.01227Z" fill="#FDFDFD"/>
<path d="M6.43663 5.01228L6.32363 5.28849C6.2483 5.46426 6.33619 5.66514 6.51196 5.74047C6.54962 5.76558 6.59984 5.76558 6.65006 5.76558C6.78817 5.76558 6.91372 5.69025 6.97649 5.55214L7.08949 5.27593C7.27782 4.84906 7.20248 4.34686 6.91372 3.98276C6.76306 3.79444 6.7505 3.53078 6.87605 3.31735L7.01416 3.0788C7.1146 2.91559 7.06438 2.70215 6.90116 2.60171C6.73795 2.50127 6.52451 2.55149 6.42407 2.7147L6.28597 2.95325C6.00976 3.40523 6.04742 3.99532 6.37385 4.42219C6.48685 4.5854 6.52451 4.8114 6.43663 5.01228Z" fill="#FDFDFD"/>
<path d="M12.3626 8.74112H11.6846V7.84971C11.6846 6.9332 9.92693 6.50633 8.30733 6.50633C6.67517 6.50633 4.93002 6.92064 4.93002 7.84971V10.4737C4.93002 11.4907 5.20623 12.47 5.72099 13.3363C5.78377 13.4367 5.84654 13.5371 5.92187 13.6501C6.22319 14.0896 6.70028 14.3658 7.21504 14.4286C7.55402 14.4662 7.91812 14.4913 8.29477 14.4913C8.67142 14.4913 9.03552 14.4662 9.37451 14.4286C9.88926 14.3658 10.3664 14.077 10.6677 13.6501C10.743 13.5497 10.8058 13.4493 10.8686 13.3363C11.1071 12.9471 11.2829 12.5202 11.421 12.0933H12.35C12.9401 12.0933 13.4298 11.6037 13.4298 11.0136V9.83341C13.4423 9.21821 12.9652 8.74112 12.3626 8.74112ZM8.30733 7.20941C10.065 7.20941 10.9439 7.67394 10.9941 7.84971C10.9439 8.02549 10.0525 8.49002 8.30733 8.49002C6.56218 8.49002 5.67077 8.02549 5.62055 7.84971C5.67077 7.67394 6.54962 7.20941 8.30733 7.20941ZM12.7518 11.001C12.7518 11.2145 12.576 11.3777 12.3752 11.3777H11.6093C11.6595 11.0764 11.6846 10.7625 11.6846 10.4612V9.43165H12.3626C12.576 9.43165 12.7393 9.60742 12.7393 9.8083V11.001H12.7518Z" fill="#FDFDFD"/>
</svg>
