<svg width="1288" height="188" viewBox="0 0 1288 188" fill="none" xmlns="http://www.w3.org/2000/svg">
<path fill-rule="evenodd" clip-rule="evenodd" d="M924.736 61.1515C937.201 50.3307 957.473 32.3873 969.937 21.2926L990.925 2.70691C992.052 1.70874 993.506 1.15766 995.011 1.15766H1042.53L1090 1.02724C1091.54 1.02303 1093.02 1.59204 1094.16 2.62288L1104.03 11.5675C1106.49 13.8148 1109.82 16.8396 1113.49 20.1705C1119.44 25.5695 1126.28 31.7725 1131.7 36.7704C1140.54 44.6553 1157.87 60.5009 1170.59 72.1207L1170.88 72.3832L1192.15 91.8883C1193.27 92.9114 1194.72 93.4879 1196.24 93.5079L1281.91 94.6381C1287.52 94.7122 1290.12 101.646 1285.94 105.393L1281.96 108.955C1273.19 116.625 1265.25 123.748 1264.29 124.707C1263.33 125.665 1256.62 131.692 1249.5 137.993C1245.47 141.566 1238.99 147.377 1232.06 153.597C1226.5 158.582 1220.65 163.83 1215.53 168.401L1196.47 185.703C1195.34 186.732 1193.86 187.303 1192.33 187.303H1095.09C1093.53 187.303 1092.03 186.713 1090.89 185.652L1076.91 172.647C1049.24 147.033 1031.57 130.733 1011.3 112.242L993.346 95.7819C992.209 94.7398 990.723 94.1617 989.181 94.1617H897.513C894.053 94.1617 892.428 89.8856 895.014 87.5871C897.616 85.164 904.276 79.2719 912.026 72.4147C916.105 68.8059 920.486 64.9298 924.736 61.1515ZM1045.78 73.9649C1059.97 73.9649 1071.46 62.4666 1071.46 48.2827C1071.46 34.0987 1059.97 22.6004 1045.78 22.6004C1031.6 22.6004 1020.1 34.0987 1020.1 48.2827C1020.1 62.4666 1031.6 73.9649 1045.78 73.9649Z" fill="#3F612D"/>
<path fill-rule="evenodd" clip-rule="evenodd" d="M477.865 60.1242C490.329 49.3034 510.601 31.3601 523.066 20.2653L544.054 1.67968C545.181 0.681519 546.634 0.130439 548.14 0.130439H595.661L643.132 2.32859e-05C644.668 -0.00419491 646.15 0.564814 647.288 1.59566L657.162 10.5403C659.618 12.7875 662.951 15.8124 666.622 19.1433C672.572 24.5423 679.408 30.7452 684.83 35.7432C693.666 43.6281 711.003 59.4736 723.717 71.0935L724.004 71.3559L745.282 90.8611C746.398 91.8842 747.852 92.4607 749.366 92.4807L835.034 93.6109C840.65 93.685 843.249 100.618 839.065 104.365L835.088 107.928C826.322 115.598 818.378 122.72 817.419 123.679C816.46 124.638 809.748 130.665 802.626 136.966C798.596 140.539 792.119 146.35 785.184 152.569C779.627 157.555 773.776 162.803 768.657 167.373L749.6 184.675C748.465 185.705 746.988 186.276 745.456 186.276H648.217C646.659 186.276 645.159 185.686 644.018 184.624L630.041 171.62C602.373 146.006 584.703 129.706 564.431 111.215L546.475 94.7546C545.338 93.7126 543.852 93.1345 542.31 93.1345H450.642C447.182 93.1345 445.556 88.8584 448.142 86.5599C450.745 84.1368 457.404 78.2447 465.155 71.3875C469.233 67.7787 473.614 63.9026 477.865 60.1242ZM598.911 72.9377C613.095 72.9377 624.593 61.4393 624.593 47.2554C624.593 33.0715 613.095 21.5731 598.911 21.5731C584.727 21.5731 573.228 33.0715 573.228 47.2554C573.228 61.4393 584.727 72.9377 598.911 72.9377Z" fill="#FF9C33"/>
<path fill-rule="evenodd" clip-rule="evenodd" d="M496.088 187.566C498.175 187.566 500.112 186.482 501.203 184.703L531.796 134.808C534.248 130.81 531.371 125.672 526.681 125.672H452.452C447.763 125.672 444.886 130.81 447.337 134.808L477.93 184.703C479.021 186.482 480.958 187.566 483.045 187.566H496.088Z" fill="#FF9C33"/>
<path fill-rule="evenodd" clip-rule="evenodd" d="M30.9934 61.1515C43.4578 50.3307 63.7297 32.3873 76.1942 21.2926L97.182 2.70691C98.3092 1.70874 99.7628 1.15766 101.268 1.15766H148.789L196.261 1.02724C197.796 1.02303 199.278 1.59204 200.416 2.62288L210.29 11.5675C212.746 13.8148 216.08 16.8396 219.751 20.1705C225.701 25.5695 232.537 31.7725 237.958 36.7704C246.795 44.6553 264.132 60.5009 276.845 72.1207L277.132 72.3832L298.411 91.8883C299.527 92.9114 300.98 93.4879 302.494 93.5079L388.163 94.6381C393.779 94.7122 396.377 101.646 392.194 105.393L388.217 108.955C379.45 116.625 371.506 123.748 370.547 124.707C369.588 125.665 362.877 131.692 355.754 137.993C351.725 141.566 345.247 147.377 338.313 153.597C332.755 158.582 326.904 163.83 321.785 168.401L302.728 185.703C301.594 186.732 300.117 187.303 298.585 187.303H201.345C199.787 187.303 198.287 186.713 197.147 185.652L183.169 172.647C155.501 147.033 137.832 130.733 117.56 112.242L99.6031 95.7819C98.4664 94.7398 96.9803 94.1617 95.4382 94.1617H3.77008C0.310379 94.1617 -1.31541 89.8856 1.2704 87.5871C3.87293 85.164 10.5325 79.2719 18.2829 72.4147C22.3617 68.8059 26.7427 64.9298 30.9934 61.1515ZM152.039 73.9649C166.223 73.9649 177.721 62.4666 177.721 48.2827C177.721 34.0987 166.223 22.6004 152.039 22.6004C137.855 22.6004 126.357 34.0987 126.357 48.2827C126.357 62.4666 137.855 73.9649 152.039 73.9649Z" fill="#3F612D"/>
</svg>
