<svg width="395" height="188" viewBox="0 0 395 188" fill="none" xmlns="http://www.w3.org/2000/svg">
<path fill-rule="evenodd" clip-rule="evenodd" d="M31.4222 60.1242C43.8867 49.3034 64.1586 31.3601 76.6231 20.2653L97.6109 1.67968C98.7381 0.681519 100.192 0.130439 101.697 0.130439H149.218L196.69 2.32859e-05C198.225 -0.00419491 199.707 0.564814 200.845 1.59566L210.719 10.5403C213.175 12.7875 216.509 15.8124 220.179 19.1433C226.13 24.5423 232.966 30.7452 238.387 35.7432C247.224 43.6281 264.561 59.4736 277.274 71.0935L277.561 71.3559L298.84 90.8611C299.956 91.8842 301.409 92.4607 302.923 92.4807L388.592 93.6109C394.208 93.685 396.806 100.618 392.623 104.365L388.646 107.928C379.879 115.598 371.935 122.72 370.976 123.679C370.017 124.638 363.306 130.665 356.183 136.966C352.153 140.539 345.676 146.35 338.742 152.569C333.184 157.555 327.333 162.803 322.214 167.373L303.157 184.675C302.023 185.705 300.546 186.276 299.014 186.276H201.774C200.216 186.276 198.716 185.686 197.575 184.624L183.598 171.62C155.93 146.006 138.261 129.706 117.989 111.215L100.032 94.7546C98.8953 93.7126 97.4092 93.1345 95.8671 93.1345H4.19897C0.739273 93.1345 -0.886519 88.8584 1.69929 86.5599C4.30182 84.1368 10.9614 78.2447 18.7118 71.3875C22.7906 67.7787 27.1716 63.9026 31.4222 60.1242ZM152.468 72.9377C166.652 72.9377 178.15 61.4393 178.15 47.2554C178.15 33.0715 166.652 21.5731 152.468 21.5731C138.284 21.5731 126.786 33.0715 126.786 47.2554C126.786 61.4393 138.284 72.9377 152.468 72.9377Z" fill="#FF9C33"/>
<path fill-rule="evenodd" clip-rule="evenodd" d="M49.6456 187.566C51.7326 187.566 53.6697 186.482 54.7606 184.703L85.3537 134.808C87.8051 130.81 84.9283 125.672 80.2387 125.672H6.00944C1.31987 125.672 -1.55692 130.81 0.894413 134.808L31.4875 184.703C32.5784 186.482 34.5155 187.566 36.6025 187.566H49.6456Z" fill="#FF9C33"/>
</svg>
