<svg xmlns="http://www.w3.org/2000/svg" version="1.1" xmlns:xlink="http://www.w3.org/1999/xlink" xmlns:svgjs="http://svgjs.com/svgjs" width="338" height="338"><svg width="338" height="338" viewBox="0 0 338 338" fill="none" xmlns="http://www.w3.org/2000/svg">
<g clip-path="url(#clip0_388_20)">
<path fill-rule="evenodd" clip-rule="evenodd" d="M56.1814 108.987C78.7757 89.372 115.522 56.8462 138.117 36.7348L176.161 3.04475C178.204 1.23538 180.839 0.236446 183.568 0.236446H269.709L355.761 4.22102e-05C358.544 -0.00760409 361.23 1.02383 363.292 2.89243L381.191 19.1064C385.643 23.1797 391.686 28.6626 398.339 34.7C409.125 44.487 421.517 55.7314 431.345 64.7914C447.363 79.0845 478.791 107.808 501.836 128.872L502.356 129.346L540.927 164.703C542.95 166.558 545.585 167.603 548.329 167.639L703.62 169.688C713.8 169.822 718.51 182.39 710.927 189.182L703.718 195.639C687.827 209.544 673.426 222.455 671.688 224.193C669.95 225.931 657.784 236.855 644.873 248.277C637.569 254.754 625.828 265.285 613.259 276.56C603.184 285.597 592.577 295.111 583.298 303.397L548.753 334.76C546.697 336.626 544.019 337.66 541.242 337.66H364.977C362.153 337.66 359.434 336.591 357.366 334.667L332.03 311.094C281.876 264.664 249.846 235.117 213.1 201.598L180.55 171.761C178.489 169.872 175.795 168.824 173 168.824H6.834C0.562622 168.824 -2.38444 161.073 2.30284 156.906C7.02037 152.514 19.0919 141.834 33.1407 129.404C40.5345 122.862 48.4761 115.836 56.1814 108.987ZM275.6 132.214C301.311 132.214 322.154 111.371 322.154 85.6595C322.154 59.9484 301.311 39.1054 275.6 39.1054C249.889 39.1054 229.046 59.9484 229.046 85.6595C229.046 111.371 249.889 132.214 275.6 132.214Z" fill="#FF9C33"></path>
<path fill-rule="evenodd" clip-rule="evenodd" d="M96.548 338.195C98.635 338.195 100.572 337.111 101.663 335.332L163.099 235.136C165.55 231.138 162.673 226 157.984 226H6.00944C1.31986 226 -1.55692 231.138 0.894414 235.136L62.33 335.332C63.4209 337.111 65.358 338.195 67.445 338.195H96.548Z" fill="#FF9C33"></path>
</g>
<defs>
<clipPath id="SvgjsClipPath1000">
<rect width="338" height="338" rx="40" fill="white"></rect>
</clipPath>
</defs>
</svg><style>@media (prefers-color-scheme: light) { :root { filter: none; } }
</style></svg>