<?xml version="1.0" standalone="no"?>
<!DOCTYPE svg PUBLIC "-//W3C//DTD SVG 20010904//EN"
 "http://www.w3.org/TR/2001/REC-SVG-20010904/DTD/svg10.dtd">
<svg version="1.0" xmlns="http://www.w3.org/2000/svg"
 width="700.000000pt" height="700.000000pt" viewBox="0 0 700.000000 700.000000"
 preserveAspectRatio="xMidYMid meet">
<metadata>
Created by potrace 1.14, written by Peter Selinger 2001-2017
</metadata>
<g transform="translate(0.000000,700.000000) scale(0.100000,-0.100000)"
fill="#000000" stroke="none">
<path d="M3753 6989 c-34 -7 -81 -31 -108 -56 -11 -10 -74 -65 -140 -123 -66
-58 -137 -121 -159 -140 -21 -19 -48 -44 -61 -55 -43 -39 -161 -143 -210 -186
-28 -24 -66 -58 -85 -75 -19 -17 -60 -53 -90 -80 -31 -27 -94 -83 -140 -124
-113 -101 -172 -153 -260 -230 -41 -36 -95 -83 -120 -106 -25 -22 -65 -58 -89
-80 -24 -21 -54 -48 -67 -59 -12 -11 -33 -29 -45 -40 -46 -40 -263 -232 -383
-339 -42 -38 -89 -78 -103 -90 -15 -11 -39 -32 -53 -46 -14 -14 -52 -47 -85
-75 -32 -27 -63 -55 -69 -60 -6 -6 -63 -55 -126 -110 -63 -55 -117 -102 -120
-105 -3 -3 -59 -53 -125 -110 -65 -58 -126 -112 -135 -120 -19 -18 -154 -137
-184 -163 -12 -10 -50 -44 -86 -76 -69 -62 -219 -195 -340 -301 -40 -36 -84
-74 -96 -85 -12 -11 -57 -51 -100 -90 -130 -116 -162 -152 -169 -187 -13 -66
14 -126 69 -156 29 -15 162 -17 1796 -18 l1765 -1 44 -23 c25 -12 50 -27 56
-34 7 -6 54 -49 106 -96 51 -47 120 -110 154 -141 33 -31 116 -107 185 -170
68 -63 134 -123 146 -134 11 -11 63 -58 115 -105 51 -47 121 -110 154 -141 33
-31 116 -107 185 -170 131 -118 198 -180 234 -214 12 -11 73 -67 136 -125 63
-58 142 -130 175 -161 33 -30 87 -80 120 -110 33 -30 86 -79 119 -109 101 -94
84 -79 335 -310 63 -58 147 -136 187 -173 40 -38 81 -76 92 -85 18 -16 170
-156 252 -232 21 -19 87 -80 146 -135 100 -92 172 -159 297 -275 27 -25 52
-46 57 -48 10 -4 45 103 59 178 14 77 14 5547 0 5615 -6 28 -12 60 -15 73 -8
41 -52 150 -81 201 -42 74 -70 109 -149 187 -77 77 -158 131 -256 171 -144 59
-72 56 -1445 57 -694 1 -1275 -2 -1290 -5z m2121 -815 c356 -62 642 -314 754
-664 30 -93 33 -111 39 -250 4 -102 1 -143 -16 -226 -28 -136 -105 -311 -166
-376 -14 -15 -25 -31 -25 -35 0 -15 -145 -149 -209 -192 -89 -61 -210 -115
-316 -142 -119 -30 -323 -32 -435 -5 -85 21 -184 58 -250 94 -118 64 -254 183
-317 276 -15 23 -31 43 -34 46 -11 9 -64 113 -87 170 -96 241 -89 523 19 756
157 340 500 562 869 562 52 0 131 -6 174 -14z"/>
<path d="M73 2305 c-46 -20 -75 -70 -69 -119 5 -41 -1 -31 450 -766 147 -239
272 -442 277 -450 17 -28 193 -317 384 -628 121 -198 200 -316 217 -326 22
-14 73 -16 368 -16 399 0 368 -8 443 117 26 43 88 143 138 223 49 80 93 152
96 160 4 8 11 20 16 25 11 13 264 424 277 450 5 11 29 52 54 90 24 39 69 111
99 160 30 50 170 279 312 510 228 371 259 425 258 461 0 50 -27 93 -70 110
-49 21 -3203 20 -3250 -1z"/>
</g>
</svg>
